<svg width="232" height="40" viewBox="0 0 232 40" fill="none" xmlns="http://www.w3.org/2000/svg">
<g clip-path="url(#clip0_927_9005)">
<path d="M0.800018 30.2506V22.0419C5.24704 22.0419 8.86443 18.4245 8.86443 13.9775V0.293732H17.0731V13.9775C17.0731 22.9514 9.77393 30.2506 0.800018 30.2506Z" fill="#7C7D81"/>
<path d="M32.3955 30.2506V22.0419C36.8425 22.0419 40.4599 18.4245 40.4599 13.9775V10.0251H48.6686V13.9775C48.6686 22.9514 41.3694 30.2506 32.3955 30.2506Z" fill="#7C7D81"/>
<path d="M72.8696 30.2506H68.4818C59.5079 30.2506 52.2087 22.9514 52.2087 13.9775V0.293732H60.4174V13.9775C60.4174 18.4245 64.0348 22.0419 68.4818 22.0419H72.8696V30.2506Z" fill="#7C7D81"/>
<path d="M29.4068 0.293732H21.1981V30.248H29.4068V0.293732Z" fill="#7C7D81"/>
<path d="M231.192 16.4225V27.6663C231.192 29.0937 230.038 30.248 228.611 30.248H192.705C191.303 30.248 190.167 29.1118 190.167 27.7101V0.291143H198.376V22.0419H206.507V2.58164C206.507 1.15427 207.661 0 209.089 0H214.777L222.978 8.2087H217.29C215.87 8.2087 214.713 9.36296 214.713 10.7852V22.0419H222.984V8.21385L231.192 16.4225Z" fill="#DB1922"/>
<path d="M48.8206 0.293732H40.6119V6.64735H48.8206V0.293732Z" fill="#DB1922"/>
<path d="M72.6248 33.3655H64.4161V39.7192H72.6248V33.3655Z" fill="#7C7D81"/>
<path d="M169.053 30.2506V22.0419C173.5 22.0419 177.117 18.4245 177.117 13.9775V0.293732H185.326V13.9775C185.326 22.9514 178.026 30.2506 169.053 30.2506Z" fill="#DB1922"/>
<path d="M160.122 0.293732V13.9775C160.122 18.4245 156.902 22.0419 152.942 22.0419C148.982 22.0419 145.761 18.4245 145.761 13.9775V0.293732H137.552V13.9775C137.552 18.4245 134.332 22.0419 130.372 22.0419C125.925 22.0419 122.307 18.4245 122.307 13.9775V0.293732H114.099V13.9775C114.099 18.4245 110.481 22.0419 106.034 22.0419H90.3433C85.8963 22.0419 82.2789 18.4245 82.2789 13.9775V0.293732H74.0702V13.9775C74.0702 22.9514 81.3694 30.2506 90.3433 30.2506H106.034C110.87 30.2506 115.219 28.1275 118.203 24.7652C121.186 28.1275 125.536 30.2506 130.372 30.2506C134.826 30.2506 138.846 28.2358 141.657 25.0255C144.47 28.2358 148.487 30.2506 152.942 30.2506C161.429 30.2506 168.331 22.9514 168.331 13.9775V0.293732H160.122Z" fill="#DB1922"/>
<path d="M231.197 0H222.984V8.21385H231.197V0Z" fill="#7C7D81"/>
<path d="M179.206 30.2506L186.374 24.5617H190.167L182.999 30.2506H179.206Z" fill="#DB1922"/>
<path d="M76.7292 36.1868V39.7887H77.801V37.3101H84.5179V36.2383H77.801V36.1894C77.801 35.2258 78.5842 34.4451 79.5453 34.4451H84.5153V33.3733H79.5453C77.9916 33.3733 76.7266 34.6383 76.7266 36.1919L76.7292 36.1868Z" fill="#7C7D81"/>
<path d="M99.6419 36.1868V39.7887H100.714V36.1868C100.714 35.2232 101.497 34.4425 102.458 34.4425H107.428V33.3707H102.458C100.904 33.3707 99.6393 34.6358 99.6393 36.1894L99.6419 36.1868Z" fill="#7C7D81"/>
<path d="M180.701 36.1868V39.7887H181.773V36.1868C181.773 35.2232 182.556 34.4425 183.517 34.4425H188.487V33.3707H183.517C181.963 33.3707 180.698 34.6358 180.698 36.1894L180.701 36.1868Z" fill="#7C7D81"/>
<path d="M228.374 33.3707H218.936V39.7887H220.008V34.4425H224.238V39.7887H225.31V34.4425H228.374C229.337 34.4425 230.118 35.2258 230.118 36.1868V39.7887H231.19V36.1868C231.19 34.6332 229.925 33.3681 228.371 33.3681L228.374 33.3707Z" fill="#7C7D81"/>
<path d="M194.202 36.1868V36.9649C194.202 38.5185 195.467 39.7836 197.02 39.7836H202.48V38.7117H197.02C196.057 38.7117 195.276 37.9285 195.276 36.9675V36.1894C195.276 35.2258 196.059 34.4451 197.02 34.4451H202.48V33.3733H197.02C195.467 33.3733 194.202 34.6383 194.202 36.1919V36.1868Z" fill="#7C7D81"/>
<path d="M212.938 33.3707H208.349C206.795 33.3707 205.53 34.6358 205.53 36.1894V36.9675C205.53 38.5211 206.795 39.7862 208.349 39.7862H212.938C214.491 39.7862 215.757 38.5211 215.757 36.9675V36.1894C215.757 34.6358 214.491 33.3707 212.938 33.3707ZM214.682 36.9675C214.682 37.9311 213.899 38.7118 212.938 38.7118H208.349C207.388 38.7118 206.605 37.9285 206.605 36.9675V36.1894C206.605 35.2258 207.388 34.4451 208.349 34.4451H212.938C213.901 34.4451 214.682 35.2283 214.682 36.1894V36.9675Z" fill="#7C7D81"/>
<path d="M93.515 33.3707H88.5449V34.4425H93.515C94.391 34.4425 95.1098 35.0918 95.2335 35.9317H89.9337C88.8722 35.9317 88.009 36.7948 88.009 37.8589C88.009 38.923 88.8722 39.7836 89.9337 39.7836H95.2593V39.7887H96.3311V36.1868C96.3311 34.6332 95.066 33.3681 93.5124 33.3681L93.515 33.3707ZM89.9337 38.7117C89.4647 38.7117 89.0809 38.3278 89.0809 37.8589C89.0809 37.39 89.4647 37.0061 89.9337 37.0061H95.2593V38.7117H89.9337Z" fill="#7C7D81"/>
<path d="M150.365 33.3707H145.395V34.4425H150.365C151.241 34.4425 151.96 35.0918 152.084 35.9317H146.784C145.722 35.9317 144.857 36.7948 144.857 37.8589C144.857 38.923 145.72 39.7836 146.784 39.7836H152.11V39.7887H153.181V36.1868C153.181 34.6332 151.916 33.3681 150.363 33.3681L150.365 33.3707ZM146.784 38.7117C146.312 38.7117 145.931 38.3278 145.931 37.8589C145.931 37.39 146.315 37.0061 146.784 37.0061H152.11V38.7117H146.784Z" fill="#7C7D81"/>
<path d="M174.445 33.3707H169.475V34.4425H174.445C175.321 34.4425 176.04 35.0918 176.164 35.9317H170.864C169.802 35.9317 168.939 36.7948 168.939 37.8589C168.939 38.923 169.802 39.7836 170.864 39.7836H176.189V39.7887H177.261V36.1868C177.261 34.6332 175.996 33.3681 174.443 33.3681L174.445 33.3707ZM170.864 38.7117C170.395 38.7117 170.011 38.3278 170.011 37.8589C170.011 37.39 170.395 37.0061 170.864 37.0061H176.189V38.7117H170.864Z" fill="#7C7D81"/>
<path d="M111.615 37.22H116.278C117.34 37.22 118.203 36.3568 118.203 35.2953C118.203 34.2338 117.34 33.3681 116.278 33.3681H111.615C110.553 33.3681 109.69 34.2312 109.69 35.2953V37.8615C109.69 38.923 110.553 39.7887 111.615 39.7887H118.069V38.7169H111.615C111.146 38.7169 110.762 38.333 110.762 37.8641V37.0138C111.02 37.1427 111.308 37.2225 111.615 37.2225V37.22ZM111.615 34.4399H116.278C116.747 34.4399 117.131 34.8238 117.131 35.2927C117.131 35.7617 116.747 36.1456 116.278 36.1456H111.615C111.146 36.1456 110.762 35.7617 110.762 35.2927C110.762 34.8238 111.146 34.4399 111.615 34.4399Z" fill="#7C7D81"/>
<path d="M127.733 36.1559V36.1507H123.07C122.601 36.1507 122.217 35.7668 122.217 35.2979C122.217 34.829 122.601 34.4451 123.07 34.4451H129.295V33.3733H123.07C122.008 33.3733 121.145 34.2364 121.145 35.3005C121.145 36.3646 121.977 37.1865 123.008 37.22V37.2251H127.672C128.14 37.2251 128.524 37.609 128.524 38.0779C128.524 38.5468 128.14 38.9307 127.672 38.9307H121.405V40.0026H127.672C128.733 40.0026 129.596 39.1394 129.596 38.0754C129.596 37.0113 128.764 36.1894 127.733 36.1559Z" fill="#7C7D81"/>
<path d="M141.523 35.2953C141.523 34.2338 140.66 33.3681 139.598 33.3681H133.868L132.796 33.3655V40H139.598C140.66 40 141.523 39.1369 141.523 38.0728C141.523 37.5266 141.291 37.0345 140.925 36.6841C141.293 36.3337 141.523 35.8415 141.523 35.2953ZM140.451 38.0728C140.451 38.5443 140.067 38.9256 139.598 38.9256H133.868V37.22H139.598C140.067 37.22 140.451 37.6039 140.451 38.0728ZM133.868 36.1481V34.4425H139.598C140.067 34.4425 140.451 34.8264 140.451 35.2953C140.451 35.7643 140.067 36.1481 139.598 36.1481H133.868Z" fill="#7C7D81"/>
<path d="M165.652 33.3707H156.729V34.4425H163.075L156.729 38.7118V39.7836H165.652V38.7118H159.306L165.652 34.4425V33.3707Z" fill="#7C7D81"/>
<path d="M165.652 38.7118H164.58V39.7836H165.652V38.7118Z" fill="#7C7D81"/>
<path d="M190.842 38.7118H189.77V39.7836H190.842V38.7118Z" fill="#7C7D81"/>
</g>
<defs>
<clipPath id="clip0_927_9005">
<rect width="230.4" height="40" fill="white" transform="translate(0.800018)"/>
</clipPath>
</defs>
</svg>
