<svg width="570" height="152" viewBox="0 0 570 152" fill="none" xmlns="http://www.w3.org/2000/svg">
<path d="M65.2812 70.8809L50.877 81.3789L61.375 93.1953L56.2969 97.8828C56.1667 98.013 55.5645 98.5176 54.4902 99.3965C53.416 100.275 52 101.268 50.2422 102.375C48.4844 103.514 46.3848 104.654 43.9434 105.793C41.502 106.932 38.849 107.811 35.9844 108.43C33.1198 109.081 30.0762 109.357 26.8535 109.26C23.6634 109.162 20.3757 108.446 16.9902 107.111C15.5254 106.558 13.9303 105.712 12.2051 104.572C10.5124 103.465 8.9987 101.952 7.66406 100.031C6.36198 98.1432 5.40169 95.7832 4.7832 92.9512C4.19727 90.1191 4.26237 86.7012 4.97852 82.6973C5.30404 80.9069 5.71094 79.2142 6.19922 77.6191C6.72005 75.9915 7.19206 74.5755 7.61523 73.3711C8.07096 72.1341 8.46159 71.1576 8.78711 70.4414C9.11263 69.6927 9.27539 69.2858 9.27539 69.2207L22.166 75.3242C21.7754 76.2357 21.3848 77.2285 20.9941 78.3027C20.6686 79.2467 20.3105 80.3372 19.9199 81.5742C19.5618 82.7786 19.2526 84.0482 18.9922 85.3828C18.6667 87.0755 18.5527 88.4264 18.6504 89.4355C18.748 90.4121 18.9759 91.2096 19.334 91.8281C19.6921 92.4141 20.1152 92.8535 20.6035 93.1465C21.1243 93.4395 21.6452 93.6836 22.166 93.8789C24.054 94.6927 26.0885 95.0508 28.2695 94.9531C30.4831 94.8555 32.5013 94.5462 34.3242 94.0254C36.1797 93.5371 37.7259 93.0326 38.9629 92.5117C40.2324 91.9583 40.8672 91.6816 40.8672 91.6816L29.8809 78.8887L56.9805 59.4062L65.2812 70.8809ZM68.748 101.203C70.7337 99.6081 72.4753 98.0944 73.9727 96.6621C75.4701 95.2298 76.7559 93.5859 77.8301 91.7305C78.9043 89.8424 79.7507 87.5801 80.3691 84.9434C81.0202 82.3066 81.4759 78.9863 81.7363 74.9824L96.1406 75.9102C95.8151 80.8255 95.2129 85.0573 94.334 88.6055C93.4551 92.1211 92.2669 95.2624 90.7695 98.0293C89.2721 100.796 87.4329 103.319 85.252 105.598C83.1035 107.876 80.597 110.139 77.7324 112.385L68.748 101.203ZM89.8418 68.293C87.3678 68.293 85.3008 67.4629 83.6406 65.8027C81.9805 64.1426 81.1504 62.0755 81.1504 59.6016C81.1504 57.1927 81.9805 55.1582 83.6406 53.498C85.3008 51.8379 87.3678 51.0078 89.8418 51.0078C92.2507 51.0078 94.2852 51.8379 95.9453 53.498C97.6055 55.1582 98.4355 57.1927 98.4355 59.6016C98.4355 62.0755 97.6055 64.1426 95.9453 65.8027C94.2852 67.4629 92.2507 68.293 89.8418 68.293ZM118.309 93C107.859 93 102.635 88.3288 102.635 78.9863V43.8789H117.039V73.7129C117.039 74.6895 117.299 75.7474 117.82 76.8867C118.374 78.026 119.513 78.5957 121.238 78.5957H122.508V93H118.309ZM133.543 115.803C131.102 115.803 129.035 114.973 127.342 113.312C125.682 111.652 124.852 109.585 124.852 107.111C124.852 104.702 125.682 102.668 127.342 101.008C129.035 99.3477 131.102 98.5176 133.543 98.5176C135.952 98.5176 137.986 99.3477 139.646 101.008C141.307 102.668 142.137 104.702 142.137 107.111C142.137 109.585 141.307 111.652 139.646 113.312C137.986 114.973 135.952 115.803 133.543 115.803ZM130.955 78.5957C132.615 78.5957 133.722 78.026 134.275 76.8867C134.861 75.7474 135.154 74.6895 135.154 73.7129V68.1953H149.559V78.9863C149.559 88.3288 144.318 93 133.836 93H122.557C122.036 93 121.515 92.8535 120.994 92.5605C120.441 92.2676 120.164 92.0072 120.164 91.7793V79.7188C120.164 79.3607 120.473 79.084 121.092 78.8887C121.678 78.6934 122.166 78.5957 122.557 78.5957H130.955ZM219.773 70.8809L205.369 81.3789L215.867 93.1953L210.789 97.8828C210.659 98.013 210.057 98.5176 208.982 99.3965C207.908 100.275 206.492 101.268 204.734 102.375C202.977 103.514 200.877 104.654 198.436 105.793C195.994 106.932 193.341 107.811 190.477 108.43C187.612 109.081 184.568 109.357 181.346 109.26C178.156 109.162 174.868 108.446 171.482 107.111C170.018 106.558 168.423 105.712 166.697 104.572C165.005 103.465 163.491 101.952 162.156 100.031C160.854 98.1432 159.894 95.7832 159.275 92.9512C158.689 90.1191 158.755 86.7012 159.471 82.6973C159.796 80.9069 160.203 79.2142 160.691 77.6191C161.212 75.9915 161.684 74.5755 162.107 73.3711C162.563 72.1341 162.954 71.1576 163.279 70.4414C163.605 69.6927 163.768 69.2858 163.768 69.2207L176.658 75.3242C176.268 76.2357 175.877 77.2285 175.486 78.3027C175.161 79.2467 174.803 80.3372 174.412 81.5742C174.054 82.7786 173.745 84.0482 173.484 85.3828C173.159 87.0755 173.045 88.4264 173.143 89.4355C173.24 90.4121 173.468 91.2096 173.826 91.8281C174.184 92.4141 174.607 92.8535 175.096 93.1465C175.617 93.4395 176.137 93.6836 176.658 93.8789C178.546 94.6927 180.581 95.0508 182.762 94.9531C184.975 94.8555 186.993 94.5462 188.816 94.0254C190.672 93.5371 192.218 93.0326 193.455 92.5117C194.725 91.9583 195.359 91.6816 195.359 91.6816L184.373 78.8887L211.473 59.4062L219.773 70.8809ZM237.742 93C227.293 93 222.068 88.3288 222.068 78.9863V43.8789H236.473V73.7129C236.473 74.6895 236.733 75.7474 237.254 76.8867C237.807 78.026 238.947 78.5957 240.672 78.5957H241.941V93H237.742ZM282.713 93C282.16 93 281.378 92.9186 280.369 92.7559C279.393 92.5931 278.351 92.2025 277.244 91.584C276.137 90.9329 275.096 89.9889 274.119 88.752C273.175 87.515 272.492 85.8385 272.068 83.7227L269.969 72.2969C267.983 72.6875 266.03 73.3874 264.109 74.3965C262.221 75.4056 260.577 76.8053 259.178 78.5957H266.014L266.99 93H241.6C241.046 93 240.574 92.8535 240.184 92.5605C239.793 92.2676 239.598 92.0072 239.598 91.7793V79.7188C239.598 79.3607 239.842 79.084 240.33 78.8887C240.786 78.6934 241.209 78.5957 241.6 78.5957H241.99H243.113C245.49 71.9225 249.493 66.7305 255.125 63.0195C260.757 59.276 267.609 57.4043 275.682 57.4043H275.779L281.688 57.502L285.789 78.5957H292.088V93H282.713ZM271.189 48.3223C268.715 48.3223 266.648 47.4922 264.988 45.832C263.328 44.1393 262.498 42.056 262.498 39.582C262.498 37.2057 263.328 35.1875 264.988 33.5273C266.648 31.8346 268.715 30.9883 271.189 30.9883C273.598 30.9883 275.633 31.8346 277.293 33.5273C278.953 35.1875 279.783 37.2057 279.783 39.582C279.783 42.056 278.953 44.1393 277.293 45.832C275.633 47.4922 273.598 48.3223 271.189 48.3223ZM292.088 93C291.567 93 291.046 92.8535 290.525 92.5605C289.972 92.2676 289.695 92.0072 289.695 91.7793V79.7188C289.695 79.3607 290.005 79.084 290.623 78.8887C291.209 78.6934 291.697 78.5957 292.088 78.5957H296.482C296.092 77.1309 295.896 75.5358 295.896 73.8105C295.896 71.1413 296.385 68.6673 297.361 66.3887C298.37 64.0775 299.738 62.0592 301.463 60.334C303.221 58.5762 305.239 57.209 307.518 56.2324C309.829 55.2233 312.319 54.7188 314.988 54.7188L317.869 45.2949C318.292 45.4251 319.155 45.7181 320.457 46.1738C321.759 46.597 323.322 47.1992 325.145 47.9805C326.967 48.7292 328.986 49.6406 331.199 50.7148C333.445 51.7565 335.675 52.9447 337.889 54.2793C340.102 55.6139 342.202 57.1276 344.188 58.8203C346.173 60.4805 347.915 62.2708 349.412 64.1914C352.049 67.7396 353.693 71.2878 354.344 74.8359C355.027 78.3516 354.637 81.6393 353.172 84.6992C351.837 87.3034 349.852 89.3379 347.215 90.8027C344.611 92.2676 341.6 93 338.182 93H292.088ZM310.203 73.8105C310.203 75.1452 310.675 76.2845 311.619 77.2285C312.596 78.14 313.751 78.5957 315.086 78.5957C316.421 78.5957 317.527 78.14 318.406 77.2285C319.318 76.2845 319.773 75.1452 319.773 73.8105C319.773 72.4759 319.318 71.3366 318.406 70.3926C317.527 69.4486 316.421 68.9766 315.086 68.9766C313.751 68.9766 312.596 69.4486 311.619 70.3926C310.675 71.3366 310.203 72.4759 310.203 73.8105ZM340.281 78.2051C340.346 78.0098 340.265 77.4401 340.037 76.4961C339.809 75.5521 339.126 74.3151 337.986 72.7852C337.465 72.1341 336.814 71.4668 336.033 70.7832C335.285 70.0671 334.438 69.3997 333.494 68.7812C333.95 70.181 334.178 71.8574 334.178 73.8105C334.178 75.5358 333.982 77.1309 333.592 78.5957H338.182C339.321 78.5957 340.021 78.4655 340.281 78.2051ZM361.717 43.8789H376.316V93H361.717V43.8789ZM373.729 101.203C375.714 99.6081 377.456 98.0944 378.953 96.6621C380.451 95.2298 381.736 93.5859 382.811 91.7305C383.885 89.8424 384.731 87.5801 385.35 84.9434C386.001 82.3066 386.456 78.9863 386.717 74.9824L401.121 75.9102C400.796 80.8255 400.193 85.0573 399.314 88.6055C398.436 92.1211 397.247 95.2624 395.75 98.0293C394.253 100.796 392.413 103.319 390.232 105.598C388.084 107.876 385.577 110.139 382.713 112.385L373.729 101.203Z" fill="#6E1616"/>
<path d="M496 57.5H496.062M489.833 76H496V100.667H502.167M440.5 76C440.5 83.2884 441.936 90.5054 444.725 97.2389C447.514 103.972 451.602 110.091 456.756 115.244C461.909 120.398 468.027 124.486 474.761 127.275C481.495 130.064 488.712 131.5 496 131.5C503.288 131.5 510.505 130.064 517.239 127.275C523.972 124.486 530.091 120.398 535.244 115.244C540.398 110.091 544.486 103.972 547.275 97.2389C550.064 90.5054 551.5 83.2884 551.5 76C551.5 61.2805 545.653 47.1638 535.244 36.7556C524.836 26.3473 510.72 20.5 496 20.5C481.28 20.5 467.164 26.3473 456.756 36.7556C446.347 47.1638 440.5 61.2805 440.5 76Z" stroke="#6E1616" stroke-width="12" stroke-linecap="round" stroke-linejoin="round"/>
</svg>
