<svg width="232" height="40" viewBox="0 0 232 40" fill="none" xmlns="http://www.w3.org/2000/svg">
<g clip-path="url(#clip0_1_60945)">
<path d="M0.800018 30.2505V22.0418C5.24704 22.0418 8.86443 18.4245 8.86443 13.9774V0.293701H17.0731V13.9774C17.0731 22.9513 9.77393 30.2505 0.800018 30.2505Z" fill="#7C7D81"/>
<path d="M32.3955 30.2506V22.0419C36.8425 22.0419 40.4599 18.4245 40.4599 13.9775V10.0251H48.6686V13.9775C48.6686 22.9514 41.3694 30.2506 32.3955 30.2506Z" fill="#7C7D81"/>
<path d="M72.8696 30.2505H68.4818C59.5079 30.2505 52.2087 22.9513 52.2087 13.9774V0.293701H60.4174V13.9774C60.4174 18.4245 64.0348 22.0418 68.4818 22.0418H72.8696V30.2505Z" fill="#7C7D81"/>
<path d="M29.4068 0.293701H21.1981V30.248H29.4068V0.293701Z" fill="#7C7D81"/>
<path d="M231.192 16.4225V27.6663C231.192 29.0937 230.038 30.248 228.611 30.248H192.705C191.303 30.248 190.167 29.1118 190.167 27.7101V0.291143H198.376V22.0419H206.507V2.58164C206.507 1.15427 207.661 0 209.089 0H214.777L222.978 8.2087H217.29C215.87 8.2087 214.713 9.36296 214.713 10.7852V22.0419H222.984V8.21385L231.192 16.4225Z" fill="#DB1922"/>
<path d="M48.8206 0.293701H40.6119V6.64732H48.8206V0.293701Z" fill="#DB1922"/>
<path d="M72.6248 33.3655H64.4161V39.7191H72.6248V33.3655Z" fill="#7C7D81"/>
<path d="M169.053 30.2505V22.0418C173.5 22.0418 177.117 18.4245 177.117 13.9774V0.293701H185.326V13.9774C185.326 22.9513 178.026 30.2505 169.053 30.2505Z" fill="#DB1922"/>
<path d="M160.122 0.293701V13.9774C160.122 18.4245 156.902 22.0418 152.942 22.0418C148.982 22.0418 145.761 18.4245 145.761 13.9774V0.293701H137.552V13.9774C137.552 18.4245 134.332 22.0418 130.372 22.0418C125.925 22.0418 122.307 18.4245 122.307 13.9774V0.293701H114.099V13.9774C114.099 18.4245 110.481 22.0418 106.034 22.0418H90.3433C85.8963 22.0418 82.2789 18.4245 82.2789 13.9774V0.293701H74.0702V13.9774C74.0702 22.9513 81.3694 30.2505 90.3433 30.2505H106.034C110.87 30.2505 115.219 28.1275 118.203 24.7652C121.186 28.1275 125.536 30.2505 130.372 30.2505C134.826 30.2505 138.846 28.2357 141.657 25.0254C144.47 28.2357 148.487 30.2505 152.942 30.2505C161.429 30.2505 168.331 22.9513 168.331 13.9774V0.293701H160.122Z" fill="#DB1922"/>
<path d="M231.197 0H222.984V8.21385H231.197V0Z" fill="#7C7D81"/>
<path d="M179.206 30.2505L186.374 24.5616H190.167L182.999 30.2505H179.206Z" fill="#DB1922"/>
<path d="M76.7292 36.1867V39.7886H77.801V37.31H84.5179V36.2382H77.801V36.1893C77.801 35.2257 78.5842 34.445 79.5453 34.445H84.5153V33.3732H79.5453C77.9916 33.3732 76.7266 34.6382 76.7266 36.1918L76.7292 36.1867Z" fill="#7C7D81"/>
<path d="M99.6419 36.1867V39.7886H100.714V36.1867C100.714 35.2231 101.497 34.4424 102.458 34.4424H107.428V33.3706H102.458C100.904 33.3706 99.6393 34.6357 99.6393 36.1893L99.6419 36.1867Z" fill="#7C7D81"/>
<path d="M180.701 36.1867V39.7886H181.773V36.1867C181.773 35.2231 182.556 34.4424 183.517 34.4424H188.487V33.3706H183.517C181.963 33.3706 180.698 34.6357 180.698 36.1893L180.701 36.1867Z" fill="#7C7D81"/>
<path d="M228.374 33.3706H218.936V39.7887H220.008V34.4424H224.238V39.7887H225.31V34.4424H228.374C229.337 34.4424 230.118 35.2257 230.118 36.1867V39.7887H231.19V36.1867C231.19 34.6331 229.925 33.368 228.371 33.368L228.374 33.3706Z" fill="#7C7D81"/>
<path d="M194.202 36.1867V36.9648C194.202 38.5184 195.467 39.7835 197.02 39.7835H202.48V38.7117H197.02C196.057 38.7117 195.276 37.9284 195.276 36.9674V36.1893C195.276 35.2257 196.059 34.445 197.02 34.445H202.48V33.3732H197.02C195.467 33.3732 194.202 34.6382 194.202 36.1918V36.1867Z" fill="#7C7D81"/>
<path d="M212.938 33.3706H208.349C206.795 33.3706 205.53 34.6357 205.53 36.1893V36.9674C205.53 38.521 206.795 39.7861 208.349 39.7861H212.938C214.491 39.7861 215.757 38.521 215.757 36.9674V36.1893C215.757 34.6357 214.491 33.3706 212.938 33.3706ZM214.682 36.9674C214.682 37.931 213.899 38.7117 212.938 38.7117H208.349C207.388 38.7117 206.605 37.9284 206.605 36.9674V36.1893C206.605 35.2257 207.388 34.445 208.349 34.445H212.938C213.901 34.445 214.682 35.2283 214.682 36.1893V36.9674Z" fill="#7C7D81"/>
<path d="M93.515 33.3706H88.5449V34.4424H93.515C94.391 34.4424 95.1098 35.0917 95.2335 35.9317H89.9337C88.8722 35.9317 88.009 36.7948 88.009 37.8589C88.009 38.923 88.8722 39.7835 89.9337 39.7835H95.2593V39.7887H96.3311V36.1867C96.3311 34.6331 95.066 33.368 93.5124 33.368L93.515 33.3706ZM89.9337 38.7117C89.4647 38.7117 89.0809 38.3278 89.0809 37.8589C89.0809 37.3899 89.4647 37.006 89.9337 37.006H95.2593V38.7117H89.9337Z" fill="#7C7D81"/>
<path d="M150.365 33.3706H145.395V34.4424H150.365C151.241 34.4424 151.96 35.0917 152.084 35.9317H146.784C145.722 35.9317 144.857 36.7948 144.857 37.8589C144.857 38.923 145.72 39.7835 146.784 39.7835H152.11V39.7887H153.181V36.1867C153.181 34.6331 151.916 33.368 150.363 33.368L150.365 33.3706ZM146.784 38.7117C146.312 38.7117 145.931 38.3278 145.931 37.8589C145.931 37.3899 146.315 37.006 146.784 37.006H152.11V38.7117H146.784Z" fill="#7C7D81"/>
<path d="M174.445 33.3706H169.475V34.4424H174.445C175.321 34.4424 176.04 35.0917 176.164 35.9317H170.864C169.802 35.9317 168.939 36.7948 168.939 37.8589C168.939 38.923 169.802 39.7835 170.864 39.7835H176.189V39.7887H177.261V36.1867C177.261 34.6331 175.996 33.368 174.443 33.368L174.445 33.3706ZM170.864 38.7117C170.395 38.7117 170.011 38.3278 170.011 37.8589C170.011 37.3899 170.395 37.006 170.864 37.006H176.189V38.7117H170.864Z" fill="#7C7D81"/>
<path d="M111.615 37.2199H116.278C117.34 37.2199 118.203 36.3568 118.203 35.2953C118.203 34.2337 117.34 33.368 116.278 33.368H111.615C110.553 33.368 109.69 34.2312 109.69 35.2953V37.8614C109.69 38.923 110.553 39.7887 111.615 39.7887H118.069V38.7168H111.615C111.146 38.7168 110.762 38.3329 110.762 37.864V37.0138C111.02 37.1426 111.308 37.2225 111.615 37.2225V37.2199ZM111.615 34.4399H116.278C116.747 34.4399 117.131 34.8238 117.131 35.2927C117.131 35.7616 116.747 36.1455 116.278 36.1455H111.615C111.146 36.1455 110.762 35.7616 110.762 35.2927C110.762 34.8238 111.146 34.4399 111.615 34.4399Z" fill="#7C7D81"/>
<path d="M127.733 36.1558V36.1506H123.07C122.601 36.1506 122.217 35.7667 122.217 35.2978C122.217 34.8289 122.601 34.445 123.07 34.445H129.295V33.3732H123.07C122.008 33.3732 121.145 34.2363 121.145 35.3004C121.145 36.3645 121.977 37.1864 123.008 37.2199V37.225H127.672C128.14 37.225 128.524 37.6089 128.524 38.0778C128.524 38.5468 128.14 38.9307 127.672 38.9307H121.405V40.0025H127.672C128.733 40.0025 129.596 39.1394 129.596 38.0753C129.596 37.0112 128.764 36.1893 127.733 36.1558Z" fill="#7C7D81"/>
<path d="M141.523 35.2953C141.523 34.2338 140.66 33.3681 139.598 33.3681H133.868L132.796 33.3655V39.9999H139.598C140.66 39.9999 141.523 39.1368 141.523 38.0727C141.523 37.5265 141.291 37.0344 140.925 36.684C141.293 36.3336 141.523 35.8415 141.523 35.2953ZM140.451 38.0727C140.451 38.5442 140.067 38.9255 139.598 38.9255H133.868V37.2199H139.598C140.067 37.2199 140.451 37.6038 140.451 38.0727ZM133.868 36.1481V34.4424H139.598C140.067 34.4424 140.451 34.8263 140.451 35.2953C140.451 35.7642 140.067 36.1481 139.598 36.1481H133.868Z" fill="#7C7D81"/>
<path d="M165.652 33.3706H156.729V34.4424H163.075L156.729 38.7117V39.7835H165.652V38.7117H159.306L165.652 34.4424V33.3706Z" fill="#7C7D81"/>
<path d="M165.652 38.7117H164.58V39.7835H165.652V38.7117Z" fill="#7C7D81"/>
<path d="M190.842 38.7117H189.77V39.7835H190.842V38.7117Z" fill="#7C7D81"/>
</g>
<defs>
<clipPath id="clip0_1_60945">
<rect width="230.4" height="40" fill="white" transform="translate(0.800018)"/>
</clipPath>
</defs>
</svg>
