<svg xmlns="http://www.w3.org/2000/svg" viewBox="0 0 2122 2122"><defs><style>.f3a1cd1c-a236-489c-9946-372e58715435{isolation:isolate;}.a0967a31-8aba-4cde-b9d7-02c1454221cb,.ac7719db-3ed2-436e-94f9-66f86e3a434d{fill:#1a7e5a;}.b63fae6e-1706-4216-b9c9-caf5f2167ee2{fill:#76c37c;}.a0967a31-8aba-4cde-b9d7-02c1454221cb{opacity:0.5;mix-blend-mode:multiply;}.a88d75c9-c90d-4a13-8585-7875651074c8{fill:#a3d5ac;opacity:0.3;}.b27f386b-26d9-4660-b7fc-6559f3fab308{fill:#fff;}.faa016c1-82d3-4c7e-811e-d3f17e694c68{fill:#552e13;}.a90e4424-b116-4109-8a4c-054f13c72c57{fill:#a81e2e;}</style></defs><title>60480 [Converted]-2</title><g class="f3a1cd1c-a236-489c-9946-372e58715435"><g id="bbc1f94d-2df6-465e-877e-33bf58604a05" data-name="Capa 1"><path class="ac7719db-3ed2-436e-94f9-66f86e3a434d" d="M1087.55,1997.42c-456.93,12.95-839.22-395.8-853.87-913s343.87-946.9,800.79-959.86,839.19,395.8,853.85,913S1544.46,1984.47,1087.55,1997.42Z"/><path class="b63fae6e-1706-4216-b9c9-caf5f2167ee2" d="M1034.47,124.58c-42,1.19,23.11,16.13,32.64,46.85-1.55,31,11.56,75.88,31,132.17,26.34,27.67,37.68,58.68,14.18,93.26,9.6,33.64,41.52,69.25,13,108.83,9.66,38.49,21.56,79.2,21.24,122.2,14.49,42.57,4.38,87.78.09,134.46,28.31,22.48,9.06,46.7-11.84,71.34-3.41,24.14-1.56,48.5,19.69,72.64,13.08,49.1,12.18,99.91,5.6,151.86,51.67,50.29,45.31,101.25,7.42,151.8,5.33,49.33-25.53,98.38-4.09,144.32,19.61,46,18.81,91,20.29,133.9s-4.93,84.16-27.05,123.56c-35.34,78.55-39.71,147.15-15.69,203.31-28.13,57.65-14.45,102.46-23.41,133.71s-19,48.32-29.93,48.63c31.29-.89,60.93-18.51,88.19-50.28s36.9-77.25,74-135.14c34.32-57.82,84.65-127.72,55.59-204.45,34.42-39.74,39.38-80.92,37.37-123.85s-7.83-87.7-4.44-134.35c24.45-47.24,26.45-95.48,1.4-144.24-100.73-46.62-13.07-99.89,4.66-152.14,10.08-52.05,59-104.22-8-151.8,3.36-24.83-16.76-48.67-29.53-72.36,15.77-24.49-4.61-47.59,14.71-71.42-7-46.35,47.35-92.83-24.51-133.77-50.33-41.56-99.27-81.22-23-122.15-5.87-38.6.42-75.29-31.42-108.3-.08-33.91-42.62-64-35.66-92.66-52.44-55.35-70.85-100-81.55-130.73C1092.33,139.73,1078,123.35,1034.47,124.58Z"/><path class="b63fae6e-1706-4216-b9c9-caf5f2167ee2" d="M962,1063.8c-15.41-42.68-14.27-78.41,1.17-109.25,19.35-30.94-31.55-54.59-5.16-77.22,11.44-44.11-35.07-73.73.65-109.66-16.7-46.07-15.06-91,2.19-134.52-2.85-42.9,9.82-84.3,4.57-122.92-36.1-76.53-1-146,15.68-203.32,36.23-57.86-7.92-101.82,23.43-133.7,14.52-31.4,7.2-48,29.94-48.63-52.8,1.5-33.71,17.74-88.21,50.28-4.87,31.13-77,78.38-74,135.14C822,368.27,843,436.15,816.65,514.44c-42.75,40-23.71,80.49-19.55,123.35-21.91,43.6-4.16,88-13.38,134.84-17.85,24.93-22.82,53.48-3.88,82.4,37.37,28.4,7.66,59.73-2,88.62-1.79,28.66-26.34,56.08-5.74,77.36,3.69,21.78,9.28,38.65,5.58,48,13.06,26.11-18.12,76.82,7.44,131.41,48.48,54,15.46,115.69,15.39,164.16,38.06,107.63,17,168.72,23,203.77,39.06,34.12-2.8,45.27,24.54,52.16,5.59,48.06,41.25,83.56,31.61,115.39,13.73,31.16-24.17,58.84,35.46,85.58,25.06,56.13,52.53,100.55,81.55,130.72s59.61,46.09,90.92,45.21c-10.94.31-21.94-16.16-32.66-46.86S1033.75,1875,1024,1818.4c31.42-29.31-53.94-66.17-14.53-105.18,53.36-39.41-39.41-73.28-12.65-96.92-12.76-49.47-27.48-80.79-11.37-116.82-61.4-33.83,19.51-75.52-10-139.85-32.87-43.67-35.56-93.28-7.86-144.79-11.26-25-13.49-50.6-12.49-76S960.34,1088.2,962,1063.8Z"/><path class="ac7719db-3ed2-436e-94f9-66f86e3a434d" d="M1004,1995.06c1.76.15,3.53.25,5.29.39-21.28-17.65-42.38-38.3-62.54-36,1.74,2.64,3.47,5.38,5.22,8.35C968.67,1965.08,986.19,1980.09,1004,1995.06Z"/><path class="ac7719db-3ed2-436e-94f9-66f86e3a434d" d="M338.47,1075.14q.06,3,.15,6.33C338.57,1079.43,338.53,1077.24,338.47,1075.14Z"/><path class="b63fae6e-1706-4216-b9c9-caf5f2167ee2" d="M951.78,131.59c-.45.58-.92,1.08-1.38,1.68-.26-.5-.51-.91-.77-1.39-22,3.18-43.78,7.38-65.22,12.47-4.94,4.6-9.89,8.25-14.88,9.65a57.75,57.75,0,0,0-15.39-1.75c-9,2.55-18,5.23-26.93,8.12-11.78,7-23.31,18.83-34.53,36.26-25.79-14-49.67,16-73.2,32.14-23.12,30.47-45.4,64.72-68.16,51.81-21.19,42.93-43.1,30.46-62.83,62.52-21.58-33.15-40.31,1.55-57.85,41.82-9.79-15.43-18.25,7.07-26.26,35.46-8.55,9.77-16.94,15.68-23.66,70.91-10.26-70.19-17.17-31.3-24,.35-8.1-14-14.89,8.47-19.87,84.64C429.07,553,423,580,416.08,565.3c-7.26-26.33-12.63,3-15.7,102.27C391,750.74,379,699.32,372.08,774.75c-5.36,131.89-18.43-57.28-20.46,91.47-4.57,59.24-8.75,79.82-12.41,64.3-.14,51.52-.25,90.63-1.21,85.67-.09,22.23.06,41.63.47,59-.38-22.34,1.24-23,6.93,74,5.43,77.83,11.12,110.44,18.39,146.54,2.11-35.49,6.52-3,11.59,40s10.79,96.61,15.52,103.32c11,67.12,23.51,138.76,32.82,52.22,11-25.3,28.58,132.65,42,104,15.48,43,29.11-21.19,48.18,67.43C533.64,1774,550,1728,569,1737.62c18.92,8.17,39,20.17,60.92,66.88,44.56,116.06,87,25.82,137.27,106.74,48.81,29.65,97.67-44.64,154,66.14,8.29-11.73,16.85-17,25.56-18-42.92-65.42-80.87-31-118.42-82.62-36.82,25.19-74-72.16-106.63-143.52-17.27-70-28.89,25.27-45.35-88.71-14.19-33.4-26.25-29.62-39.2-98.56-6.5-35.55-14.85-146.69-18.07-87.07-6.64-61.84-7.75,61-14.51-26.31-9.21-23.2-18.63-99.16-24.81-108.87-5,31.1-14.44-141.63-16.86-119.44-1.59-2.43-3.86-41.59-6-89.44-.5,4.43-2.81-63.51-2.76-57.56-1.33-56.19.26-54.91,2.14-86.62,2.63,39.18,3.94,18.43,4.82-29.94,3.32,38,2.31-89.78,4.55-114.87,2.13-132.75,15.21,71.68,18.86-100.87,4.34,2.32,9.9,36.41,11.78-70,3.4,33.37,3.59-48.68,5.77-63.75,2.91,11,3.53-61.68,8.29,9.47,4.26-43.87,9.2-73.59,14.41-103.94,4.41-58.83,11.3-39.74,19.14,3.33,14.31,37.52,27.63,2.72,40.26-91.16,15.36,2.93,28.65-101.7,46.78-66.4,15.9-43.56,33.56-55.51,51.55-82.92,17.22-54.49,37.59-25.24,56.89-57.17,19.62-20.87,40.92-6.4,61.4-40.65C922,151,943.36,129.67,966,135.08c16.42,6.15,32.59-5.16,49.17-9.67Q983.13,127.15,951.78,131.59Z"/><path class="b63fae6e-1706-4216-b9c9-caf5f2167ee2" d="M1339.48,1862.32c-38.18,41.75-72,74.7-118.28,97.83-42.1,23-104.42,36.44-133.65,37.27a738.2,738.2,0,0,0,165-23.46,4.27,4.27,0,0,0-.06-6c59.94-17.89,132.33-43.75,150.06-74.76,105-33.48,75.33-69.82,131-114.34,36.08-44,47.29-93,107.76-148.19-1.15-26.71,16.57-55.17,35.76-84.76s48.18-60.53,44.59-91.52c26.38-31.85,25.67-63.9,28.58-96.89,38.11-34-8-66.45,20.17-101.76,18.15-35,13.44-70.11,11.23-105.9-22.37-35.22-37.73-71.26,1.77-109.35-5.28-36.82-11.76-73.11-16.82-108.81s-8.71-70.85-8.35-105.36c-4.32-34.38-21.76-67.66-9.22-100.92-6.91-32.73,51.86-66.46-50.71-94.64,5.75-31.26-.66-61.2-31.83-89.36-29.08-28.21-52.12-55.52-58.37-82.09-46.32-52.19-74.87-100.08-116-141.85-61.07-41.21-96-77.4-137.26-106.73-7.55-30.29-110.92-51.17-154-66.14a567.85,567.85,0,0,0-166.32-20c46.6-1.31,92.07,9,135.55,29.64,39.32,20.71,91.8,51.2,123.64,91,74.52,38.55,89.31,87.47,106.63,143.51,25.55,27.54,22.27,57.7,45.34,88.72,54.64,30.12,42.27,63.76,39.2,98.55,21.13,34.11,79.87,68.58,48.32,106.85,19.42,36.83,11.35,75.67,9.07,115.41,51.62,38.19,45,79.09,15.33,121.52,1.76,41.53,2.61,84,9.8,126.89-36.06,44.15,56.46,84-1,127.2-10.62,41.88-39.43,83.42-10,122.25,58.89,38,1.63,78.23-41.3,116.83-8.44,37.61-10.55,73.81-3.4,108.31,28.07,68.63-81.77,135.46-73.81,191.77C1395,1770.74,1410.72,1819.64,1339.48,1862.32Z"/><path class="a0967a31-8aba-4cde-b9d7-02c1454221cb" d="M319.85,1472.6c139.87,318.59,433.85,534.28,767.7,524.82,456.91-13,815.44-442.7,800.77-959.87-12.79-451.3-305.53-820-683.51-898,13.71,17.19,27.47,32.51,34.11,42.33,36.22,53.56,67,104.25,93.12,162.9C1361.57,411,1388.92,476.39,1404,548.1c15,71.45,10.36,148.21,12.5,221.23,8.61,295.07-175.14,527.19-400.87,697.85-66.35,50.16-147.06,82.09-226.6,102.67-58.8,15.21-108.39,31.34-169.57,15.07-78-20.73-149.22-62.49-227.28-85.22C367.69,1492.57,343.72,1482.76,319.85,1472.6Z"/><path class="a0967a31-8aba-4cde-b9d7-02c1454221cb" d="M1087.55,1997.42c456.91-13,815.44-442.7,800.77-959.87-9-318.2-157.24-595.31-376.35-758.45,8.83,58,65.94,116.65,73.67,175.51,9.74,74.17,12.65,146.25,18.48,220.88,9.21,117.83,21.41,242.56,14.36,360.83-7.42,124.39-122.77,243.25-174.5,343.35-51.22,99.13-113.36,174.72-190.33,238.82C1107.58,1740.15,955.54,1867.62,774,1807c-74.74-25-150-47.49-225.42-69.93-27.5-8.17-55.2-16.59-81.9-28.82C623.37,1892.28,844.93,2004.29,1087.55,1997.42Z"/><path class="a88d75c9-c90d-4a13-8585-7875651074c8" d="M414.23,701.6c-42.13,116.92-83.81,238.64-31.8,361.08,40.73,95.88,136.42,108.34,215.24,89.84,94.39-22.16,175.18-102,244.9-177.63,75.19-81.59,139-162.17,143.36-292.35,3-88.35-31-176.33-75.8-244.64-62.16-94.84-196-126.81-283.64-76.72-22.21,12.68-38.15,20.5-52.06,45.11C574.43,406.29,454.07,591.07,414.23,701.6Z"/><circle class="b27f386b-26d9-4660-b7fc-6559f3fab308" cx="1413.91" cy="923.73" r="224.69"/><circle class="faa016c1-82d3-4c7e-811e-d3f17e694c68" cx="1468.91" cy="923.73" r="160.5" transform="translate(-222.94 1309.23) rotate(-45)"/><ellipse class="b27f386b-26d9-4660-b7fc-6559f3fab308" cx="1522.06" cy="845.62" rx="45.15" ry="46.7"/><path class="b27f386b-26d9-4660-b7fc-6559f3fab308" d="M1605.65,911.83c0,13.37-10.48,24.2-23.4,24.2s-23.4-10.83-23.4-24.2,10.48-24.21,23.4-24.21S1605.65,898.46,1605.65,911.83Z"/><circle class="b27f386b-26d9-4660-b7fc-6559f3fab308" cx="725.78" cy="923.73" r="224.69"/><circle class="faa016c1-82d3-4c7e-811e-d3f17e694c68" cx="778.78" cy="923.73" r="160.5" transform="translate(-425.08 821.24) rotate(-45)"/><path class="b27f386b-26d9-4660-b7fc-6559f3fab308" d="M877.08,845.62c0,25.8-20.21,46.7-45.14,46.7s-45.15-20.9-45.15-46.7,20.22-46.7,45.15-46.7S877.08,819.83,877.08,845.62Z"/><path class="b27f386b-26d9-4660-b7fc-6559f3fab308" d="M915.52,911.83c0,13.37-10.47,24.2-23.39,24.2s-23.4-10.83-23.4-24.2,10.47-24.21,23.4-24.21S915.52,898.46,915.52,911.83Z"/><path class="faa016c1-82d3-4c7e-811e-d3f17e694c68" d="M773.86,1436.57a327.73,327.73,0,0,0,599.82,0c15.23-34.56,7.79-71.48-13.48-97.45a93.62,93.62,0,0,0-72.92-34.45h-427a93.52,93.52,0,0,0-45,11.34C774.34,1338.25,753.16,1389.6,773.86,1436.57Z"/><path class="b27f386b-26d9-4660-b7fc-6559f3fab308" d="M815.26,1316c7.8,70.19,119,125.86,255.08,125.86,138.14,0,250.69-57.39,255.38-129.11a94.13,94.13,0,0,0-38.44-8.09h-427A93.52,93.52,0,0,0,815.26,1316Z"/><path class="a90e4424-b116-4109-8a4c-054f13c72c57" d="M822.48,1514.79A327.54,327.54,0,0,0,1290.82,1550c-27.73-58.17-128.21-101.25-247.92-101.25C949,1448.73,866.88,1475.26,822.48,1514.79Z"/></g></g></svg>