<?xml version="1.0" encoding="utf-8"?>
<!-- Generator: Adobe Illustrator 23.0.3, SVG Export Plug-In . SVG Version: 6.00 Build 0)  -->
<svg version="1.1" id="Layer_1" xmlns="http://www.w3.org/2000/svg" xmlns:xlink="http://www.w3.org/1999/xlink" x="0px" y="0px"
	 viewBox="0 0 595.13 841.29" style="enable-background:new 0 0 595.13 841.29;" xml:space="preserve">
<style type="text/css">
	.st0{fill:#1A7E59;}
	.st1{fill:#76C27C;}
	.st2{opacity:0.5;fill:#1A7E59;}
	.st3{opacity:0.3;fill:#A3D4AB;}
	.st4{fill:#FFFFFF;}
	.st5{fill:#552D12;}
	.st6{fill:#A71E2D;}
</style>
<g>
	<g>
		<path class="st0" d="M296.77,700.95C186.48,699.29,98.61,596.74,100.49,471.9c1.89-124.83,92.82-224.68,203.11-223.01
			c110.29,1.67,198.17,104.21,196.28,229.04C498,602.77,407.06,702.62,296.77,700.95z"/>
		<g>
			<g>
				<path class="st1" d="M303.6,248.89c-10.13-0.15,5.4,4.13,7.38,11.64c-0.7,7.47,1.99,18.41,6.08,32.19
					c6.06,6.95,8.47,14.54,2.44,22.63c1.96,8.21,9.28,17.13,1.99,26.37c1.92,9.38,4.37,19.32,3.84,29.68
					c3.05,10.41,0.14,21.21-1.39,32.42c6.59,5.72,1.69,11.35-3.6,17.08c-1.07,5.78-0.88,11.68,3.99,17.72
					c2.64,11.97,1.89,24.21-0.24,36.67c11.93,12.67,9.86,24.88,0.2,36.67c0.77,11.95-7.19,23.45-2.5,34.75
					c4.25,11.29,3.58,22.12,3.49,32.49c-0.09,10.37-2.07,20.24-7.82,29.51c-9.34,18.57-11.11,35.06-5.91,48.85
					c-7.39,13.6-4.56,24.55-7.04,31.99c-2.49,7.44-5.09,11.45-7.73,11.41c7.55,0.11,14.88-3.82,21.79-11.2
					c6.91-7.37,9.7-18.23,19.26-31.8c8.88-13.58,21.75-29.9,15.54-48.71c8.71-9.22,10.34-19.1,10.31-29.47
					c-0.04-10.37-0.97-21.22,0.34-32.43c6.39-11.13,7.38-22.74,1.85-34.76c-23.8-12.3-2.1-24.22,2.72-36.63
					c2.98-12.44,15.3-24.51-0.34-36.68c1.07-5.95-3.53-11.91-6.36-17.75c4.06-5.74-0.61-11.52,4.29-17.06
					c-1.21-11.25,12.39-21.88-4.51-32.51c-11.7-10.55-23.08-20.62-4.26-29.69c-1.01-9.37,0.89-18.15-6.44-26.44
					c0.34-8.18-9.6-15.89-7.63-22.71c-12.06-13.89-16.03-24.86-18.29-32.37C317.39,253.15,314.1,249.05,303.6,248.89z"/>
				<path class="st1" d="M276.29,474.56c-3.27-10.45-2.62-19.05,1.43-26.33c4.99-7.26-7.03-13.49-0.43-18.67
					c3.22-10.51-7.68-18.14,1.31-26.43c-3.54-11.28-2.68-22.11,1.94-32.41c-0.24-10.37,3.25-20.22,2.39-29.59
					c-7.9-18.83,1.28-35.21,5.91-48.85c9.34-13.57-0.84-24.63,7.05-31.99c3.83-7.42,2.24-11.49,7.73-11.41
					c-12.74-0.19-8.31,3.92-21.79,11.2c-1.5,7.45-19.39,18.09-19.26,31.8c-12.72,13.52-8.38,30.11-15.54,48.71
					c-10.73,9.19-6.56,19.15-6.01,29.53c-5.74,10.28-1.92,21.18-4.64,32.37c-4.56,5.82-6.06,12.65-1.8,19.82
					c8.71,7.24,1.22,14.48-1.42,21.34c-0.73,6.89-6.94,13.24-2.19,18.59c0.66,5.29,1.83,9.42,0.84,11.63
					c2.87,6.43-5.17,18.33,0.42,31.76c11.12,13.51,2.52,28.05,1.99,39.74c8.05,26.35,2.34,40.85,3.41,49.37
					c9.06,8.63-1.15,10.88,5.37,12.83c0.85,11.65,9.07,20.58,6.41,28.15c2.98,7.66-6.44,13.93,7.65,21
					c5.45,13.79,11.61,24.79,18.29,32.37c6.68,7.58,13.89,11.74,21.44,11.85c-2.64-0.04-5.12-4.13-7.38-11.64
					c-2.26-7.51-4.31-18.45-6.08-32.19c7.88-6.74-12.31-16.52-2.4-25.51c13.28-8.94-8.73-18.08-2.03-23.5
					c-2.56-12.06-5.78-19.77-1.52-28.28c-14.45-8.8,5.49-18-0.94-33.82c-7.47-10.87-7.59-22.86-0.38-34.99
					c-2.45-6.16-2.72-12.34-2.21-18.45C274.35,486.47,275.63,480.43,276.29,474.56z"/>
			</g>
			<g>
				<path class="st0" d="M276.66,699.51c0.42,0.05,0.85,0.1,1.27,0.15c-4.95-4.48-9.82-9.68-14.7-9.34
					c0.39,0.65,0.78,1.33,1.17,2.07C268.45,691.91,272.52,695.71,276.66,699.51z"/>
				<path class="st0" d="M125.85,470.76c-0.01,0.48-0.02,0.99-0.03,1.53C125.83,471.8,125.84,471.27,125.85,470.76z"/>
				<path class="st1" d="M283.6,249.72c-0.12,0.13-0.23,0.25-0.35,0.39c-0.06-0.12-0.11-0.23-0.17-0.34
					c-5.35,0.54-10.63,1.32-15.85,2.32c-1.24,1.06-2.47,1.88-3.69,2.17c-1.23-0.36-2.46-0.56-3.69-0.59
					c-2.2,0.52-4.4,1.07-6.58,1.68c-2.91,1.58-5.82,4.3-8.7,8.38c-6.07-3.66-12.14,3.34-17.98,6.98
					c-5.89,7.1-11.62,15.13-16.98,11.78c-5.56,10.13-10.71,6.89-15.8,14.41c-4.85-8.22-9.73-0.05-14.38,9.47
					c-2.2-3.82-4.47,1.51-6.7,8.27c-2.16,2.27-4.25,3.6-6.45,16.85c-1.74-17.03-3.81-7.73-5.79-0.17c-1.81-3.46-3.68,1.89-5.68,20.2
					c-1.63-5.7-3.38,0.76-4.89-2.87c-1.47-6.42-3.08,0.58-4.86,24.49c-3.14,19.95-5.48,7.43-7.95,25.54
					c-2.67,31.74-3.84-14-5.89,21.84c-1.72,14.23-2.95,19.15-3.67,15.37c-0.57,12.42-1.01,21.85-1.19,20.64
					c-0.26,5.36-0.42,10.04-0.5,14.22c0.14-5.39,0.54-5.53,0.9,17.9c0.49,18.82,1.52,26.74,2.9,35.52c0.88-8.53,1.6-0.66,2.37,9.77
					c0.77,10.43,1.59,23.4,2.66,25.07c1.95,16.3,4.21,33.7,7.36,12.93c2.93-5.98,5.5,32.28,9.04,25.52
					c3.28,10.53,7.24-4.8,10.91,16.76c3.59,27.06,8.01,16.12,12.49,18.65c4.47,2.17,9.18,5.27,13.99,16.76
					c9.53,28.45,20.7,7.14,31.97,27.17c11.46,7.66,24.01-9.74,36.44,17.56c2.12-2.74,4.24-3.91,6.35-4.06
					c-9.66-16.22-19.17-8.33-27.68-21.16c-9.14,5.69-17.09-18.17-24.2-35.72c-3.43-17.07-7.23,5.79-10-21.86
					c-3.07-8.2-6.02-7.41-8.42-24.17c-1.2-8.64-2.04-35.52-3.44-21.18c-0.95-14.98-2.51,14.61-3.22-6.49
					c-1.98-5.69-3.45-24.1-4.84-26.51c-1.53,7.45-2-34.29-2.81-28.97c-0.36-0.6-0.49-10.07-0.51-21.62
					c-0.17,1.06-0.01-15.34-0.06-13.9c0.27-13.56,0.64-13.24,1.42-20.86c0.22,9.47,0.76,4.48,1.48-7.17
					c0.4,9.21,1.5-21.62,2.3-27.65c1.91-31.98,2.91,17.44,5.6-24.12c1.02,0.6,2,8.88,3.57-16.75c0.47,8.08,1.38-11.7,2.06-15.31
					c0.59,2.68,1.5-14.83,1.9,2.37c1.49-10.53,2.99-17.64,4.56-24.91c1.68-14.14,3.14-9.46,4.58,1c3.06,9.2,6.63,0.95,10.66-21.55
					c3.67,0.87,7.97-24.22,11.98-15.52c4.29-10.34,8.67-13.03,13.3-19.45c4.72-12.96,9.33-5.69,14.32-13.19
					c4.95-4.82,9.93-1.11,15.23-9.16c5.21-2.4,10.6-7.31,16-5.77c3.9,1.66,7.91-0.9,11.96-1.82
					C293.78,248.95,288.66,249.22,283.6,249.72z"/>
			</g>
			<path class="st1" d="M358.93,671.02c-9.64,9.66-18.15,17.25-29.54,22.34c-10.39,5.11-25.56,7.69-32.61,7.58
				c13.68,0.21,27.07-1.15,40.02-3.92c0.39-0.44,0.43-0.92,0.05-1.44c14.64-3.68,32.36-9.16,36.96-16.45
				c25.67-6.97,18.89-16.04,32.78-26.19c9.16-10.22,12.38-21.92,27.53-34.59c0-6.45,4.57-13.13,9.51-20.06
				c4.94-6.93,12.25-14.09,11.71-21.6c6.69-7.4,6.86-15.14,7.91-23.06c9.54-7.8-1.23-16.1,5.93-24.32
				c4.74-8.25,3.97-16.76,3.82-25.41c-5.02-8.72-8.35-17.57,1.57-26.34c-0.89-8.93-2.07-17.75-2.91-26.41
				c-0.84-8.66-1.36-17.17-0.91-25.49c-0.68-8.33-4.54-16.54-1.17-24.43c-1.32-7.96,13.2-15.48-11.23-23.35
				c1.71-7.48,0.48-14.76-6.74-21.88c-6.72-7.11-11.98-13.93-13.21-20.4c-10.62-13.07-17-24.91-26.47-35.41
				c-14.29-10.58-22.34-19.67-31.97-27.17c-1.5-7.38-26.2-13.5-36.44-17.56c-12.78-4.1-26.13-6.36-39.89-6.57
				c11.25,0.17,22.1,3.15,32.37,8.56c9.26,5.41,21.59,13.31,28.85,23.23c17.56,10.07,20.61,22.02,24.2,35.71
				c5.87,6.91,4.76,14.14,10,21.86c12.86,7.83,9.52,15.81,8.42,24.17c4.74,8.44,18.54,17.37,10.53,26.27
				c4.29,9.08,1.94,18.36,0.98,27.92c12.04,9.75,10.01,19.54,2.42,29.46c-0.01,10.03-0.25,20.27,1.03,30.69
				c-9.16,10.27,12.73,20.84-1.58,30.65c-3,9.99-10.38,19.7-3.69,29.37c13.8,9.78-0.43,18.88-11.18,27.73
				c-2.43,8.98-3.32,17.68-1.96,26.08c6.05,16.84-21.13,31.8-19.8,45.46C373.28,649.53,376.55,661.48,358.93,671.02z"/>
		</g>
		<path class="st2" d="M117.2,566.38c30.38,78.27,98.99,133.35,179.58,134.57c110.29,1.67,201.22-98.18,203.11-223.01
			c1.64-108.93-65.07-200.88-155.37-223.65c3.13,4.29,6.28,8.13,7.78,10.56c8.17,13.29,15.05,25.83,20.74,40.25
			c6.42,16.26,12.33,32.32,15.2,49.77c2.86,17.38,0.95,35.84,0.7,53.47c-1.01,71.22-47.75,125.26-103.95,164.03
			c-16.52,11.4-36.31,18.25-55.7,22.38c-14.33,3.05-26.46,6.42-41.04,1.86c-18.59-5.82-35.32-16.63-53.9-22.93
			C128.52,571.7,122.85,569.08,117.2,566.38z"/>
		<path class="st2" d="M296.77,700.95c110.29,1.67,201.22-98.18,203.11-223.01c1.16-76.81-31.67-145.16-82.78-186.79
			c1.52,14.08,14.67,28.81,15.92,43.08c1.57,17.98,1.52,35.39,2.14,53.44c0.99,28.5,2.62,58.7-0.32,87.14
			c-3.09,29.91-32.15,57.36-45.66,80.95c-13.39,23.36-29.16,40.93-48.39,55.58c-36.49,27.8-74.48,56.94-117.61,40.42
			c-17.76-6.8-35.65-13.02-53.61-19.22c-6.54-2.26-13.13-4.58-19.44-7.81C185.97,670.74,238.21,700.07,296.77,700.95z"/>
		<path class="st3" d="M148.03,381.5c-11.38,27.75-22.7,56.65-11.45,86.71c8.81,23.54,31.75,27.55,50.95,23.92
			c22.99-4.35,43.3-22.76,60.9-40.26c18.98-18.88,35.21-37.64,37.63-68.98c1.64-21.27-5.64-42.83-15.71-59.77
			c-13.99-23.52-45.92-32.63-67.58-21.47c-5.49,2.83-9.41,4.54-13.02,10.33C189.75,311.99,158.79,355.27,148.03,381.5z"/>
	</g>
	<g>
		<g>
			<g>
				<ellipse class="st4" cx="216.31" cy="446.94" rx="58.15" ry="64.91"/>
			</g>
		</g>
		<g>
			<g>
				<ellipse class="st5" cx="216.31" cy="446.94" rx="41.53" ry="46.36"/>
			</g>
		</g>
		<g>
			<g>
				<ellipse class="st4" cx="202.56" cy="424.37" rx="11.68" ry="13.49"/>
			</g>
		</g>
		<g>
			<g>
				<path class="st4" d="M180.93,443.5c0,3.86,2.71,6.99,6.06,6.99c3.34,0,6.06-3.13,6.06-6.99c0-3.86-2.71-6.99-6.06-6.99
					C183.64,436.5,180.93,439.63,180.93,443.5z"/>
			</g>
		</g>
	</g>
	<g>
		<g>
			<g>
				<ellipse class="st4" cx="394.39" cy="446.94" rx="58.15" ry="64.91"/>
			</g>
		</g>
		<g>
			<g>
				<ellipse class="st5" cx="394.39" cy="446.94" rx="41.53" ry="46.36"/>
			</g>
		</g>
		<g>
			<g>
				<path class="st4" d="M419.83,424.37c0,7.45-5.23,13.49-11.68,13.49c-6.45,0-11.68-6.04-11.68-13.49
					c0-7.45,5.23-13.49,11.68-13.49C414.6,410.88,419.83,416.92,419.83,424.37z"/>
			</g>
		</g>
		<g>
			<g>
				<path class="st4" d="M429.78,443.5c0,3.86-2.71,6.99-6.06,6.99c-3.34,0-6.06-3.13-6.06-6.99c0-3.86,2.71-6.99,6.06-6.99
					C427.07,436.5,429.78,439.63,429.78,443.5z"/>
			</g>
		</g>
	</g>
	<g>
		<g>
			<path class="st5" d="M221.3,567.6c3.46,8.76,8,16.88,13.43,24.12c16.6,22.14,41.54,36.22,69.42,36.22
				c23,0,43.99-9.58,59.96-25.36c9.73-9.61,17.58-21.52,22.89-34.97c4.21-10.66,2.15-22.04-3.72-30.05
				c-2.53-3.45-5.77-6.27-9.53-8.13c-3.21-1.6-6.79-2.5-10.62-2.5H245.16c-4.57,0-8.79,1.28-12.43,3.5
				C221.43,537.29,215.58,553.12,221.3,567.6z"/>
		</g>
		<g>
			<path class="st4" d="M232.73,530.43c2.16,21.65,32.88,38.81,70.47,38.81c38.16,0,69.26-17.7,70.55-39.81
				c-3.21-1.6-6.79-2.5-10.62-2.5H245.16C240.59,526.93,236.38,528.21,232.73,530.43z"/>
		</g>
		<g>
			<path class="st6" d="M234.73,591.73c16.6,22.14,41.54,36.22,69.42,36.22c23,0,43.99-9.58,59.96-25.36
				c-7.66-17.94-35.42-31.22-68.49-31.22C269.67,571.35,246.99,579.54,234.73,591.73z"/>
		</g>
	</g>
</g>
</svg>
